<?xml version="1.0"?>
<svg width="25" height="30" xmlns="http://www.w3.org/2000/svg" xmlns:svg="http://www.w3.org/2000/svg">
 <g class="layer">
  <title>Layer 1</title>
  <path d="m13.79,2.61c2.02,-2.6 4.82,-2.61 4.82,-2.61c0,0 0.42,2.44 -1.59,4.8c-2.13,2.51 -4.56,2.1 -4.56,2.1c0,0 -0.46,-1.98 1.33,-4.29zm-1.08,6c1.04,0 2.96,-1.4 5.47,-1.4c4.31,0 6,3 6,3c0,0 -3.31,1.66 -3.31,5.69c0,4.54 4.13,6.1 4.13,6.1c0,0 -2.89,7.96 -6.79,7.96c-1.79,0 -3.18,-1.19 -5.07,-1.19c-1.93,0 -3.83,1.23 -5.08,1.23c-3.56,0 -8.06,-7.54 -8.06,-13.61c0,-5.96 3.81,-9.09 7.38,-9.09c2.32,0 4.13,1.31 5.33,1.31z" fill="#ffffff" id="svg_1"/>
 </g>
</svg>